<mxfile host="app.diagrams.net" modified="2023-10-17T17:27:58.489Z" agent="Mozilla/5.0 (Windows NT 10.0; Win64; x64) AppleWebKit/537.36 (KHTML, like Gecko) Chrome/118.0.0.0 Safari/537.36" version="22.0.4" etag="Da44-n5x81YZD7v9AsBr" type="github">
  <diagram name="PÃ¡gina-1" id="v-V9oNwEjG7eebgQW-Xe">
    <mxGraphModel>
      <root>
        <mxCell id="0" />
        <mxCell id="1" parent="0" />
      </root>
    </mxGraphModel>
  </diagram>
</mxfile>
